<svg width="137" height="23" viewBox="0 0 137 23" fill="none" xmlns="http://www.w3.org/2000/svg">
<path d="M8.625 16.125L13.1406 0.25H15.3281L14.0625 6.42188L9.20312 23H7.03125L8.625 16.125ZM3.95312 0.25L7.54688 15.8125L8.625 23H6.46875L0.953125 0.25H3.95312ZM21.1719 15.7969L24.6875 0.25H27.7031L22.2031 23H20.0469L21.1719 15.7969ZM15.6562 0.25L20.0469 16.125L21.6406 23H19.4688L14.7812 6.42188L13.5 0.25H15.6562ZM34.2812 0.25V23H31.2656V0.25H34.2812ZM53.5625 20.5469V23H42.1875V20.5469H53.5625ZM42.7812 0.25V23H39.7656V0.25H42.7812ZM63.1719 23H58.4219L58.4531 20.5469H63.1719C64.7969 20.5469 66.151 20.2083 67.2344 19.5312C68.3177 18.8438 69.1302 17.8854 69.6719 16.6562C70.224 15.4167 70.5 13.9688 70.5 12.3125V10.9219C70.5 9.61979 70.3438 8.46354 70.0312 7.45312C69.7188 6.43229 69.2604 5.57292 68.6562 4.875C68.0521 4.16667 67.3125 3.63021 66.4375 3.26562C65.5729 2.90104 64.5781 2.71875 63.4531 2.71875H58.3281V0.25H63.4531C64.9427 0.25 66.3021 0.5 67.5312 1C68.7604 1.48958 69.8177 2.20312 70.7031 3.14062C71.599 4.06771 72.2865 5.19271 72.7656 6.51562C73.2448 7.82812 73.4844 9.30729 73.4844 10.9531V12.3125C73.4844 13.9583 73.2448 15.4427 72.7656 16.7656C72.2865 18.0781 71.5938 19.1979 70.6875 20.125C69.7917 21.0521 68.7083 21.7656 67.4375 22.2656C66.1771 22.7552 64.7552 23 63.1719 23ZM60.0312 0.25V23H57.0156V0.25H60.0312ZM91.8125 20.5469V23H80.4375V20.5469H91.8125ZM81.0312 0.25V23H78.0156V0.25H81.0312ZM98.5 0.25V23H95.4844V0.25H98.5ZM107 0.25V23H103.984V0.25H107ZM116.531 10.4844V12.9531H106.344V10.4844H116.531ZM118.078 0.25V2.71875H106.344V0.25H118.078ZM136.125 20.5469V23H124.078V20.5469H136.125ZM124.688 0.25V23H121.672V0.25H124.688ZM134.531 10.0312V12.4844H124.078V10.0312H134.531ZM135.969 0.25V2.71875H124.078V0.25H135.969Z" fill="#F7F7F7"/>
</svg>
